# xmcd
#
# Track frame offsets:
#	150
#	15400
#	32667
#	45005
#	64155
#	74815
#	90170
#	101205
#	112595
#	126135
#	135882
#	148835
#	161250
#	173682
#
# Disc length: 2450 seconds
#
# Revision: 1
# Processed by: cddbd v1.4PL0 Copyright (c) Steve Scherf et al.
# Submitted via: audiograbber 1.81.00
#
DISCID=a709900e
DTITLE=Bobby Bare - The Great Bobby Bare
DYEAR=1900
DGENRE=Country
TTITLE0=For The Good Times
TTITLE1=Sylvia's Mother
TTITLE2=Loving Her Was Easier
TTITLE3=Me And Bobby McGee
TTITLE4=Don't It Make You Want To Go Gome
TTITLE5=Leaving On A Jet Plane
TTITLE6=Hello Darlin'
TTITLE7=That's How I Got To Memphis
TTITLE8=Mrs Jones Your Daughter Cried All Night
TTITLE9=Mabel You Have Been A Friend To Me
TTITLE10=I Took A Memory To Lunch
TTITLE11=When Love Is Gone
TTITLE12=The Year That Clayton Delaney Died
TTITLE13=Help Me Make It Thru The Night
EXTD=
EXTT0=
EXTT1=
EXTT2=
EXTT3=
EXTT4=
EXTT5=
EXTT6=
EXTT7=
EXTT8=
EXTT9=
EXTT10=
EXTT11=
EXTT12=
EXTT13=
PLAYORDER=
